<?xml version="1.0" standalone="no"?>
<!DOCTYPE svg PUBLIC "-//W3C//DTD SVG 20010904//EN"
 "http://www.w3.org/TR/2001/REC-SVG-20010904/DTD/svg10.dtd">
<svg version="1.0" xmlns="http://www.w3.org/2000/svg"
 width="4000.000000pt" height="4000.000000pt" viewBox="0 0 4000.000000 4000.000000"
 preserveAspectRatio="xMidYMid meet">
<metadata>
Created by potrace 1.14, written by Peter Selinger 2001-2017
</metadata>
<g transform="translate(0.000000,4000.000000) scale(0.100000,-0.100000)"
fill="#000000" stroke="none">
<path d="M19527 36724 c-1 -1 -54 -5 -117 -9 -227 -13 -237 -14 -445 -41 -514
-66 -1056 -226 -1521 -450 -61 -29 -124 -56 -140 -60 -52 -12 -267 -71 -324
-89 -146 -45 -368 -118 -397 -131 -17 -8 -35 -14 -40 -14 -8 0 -341 -129 -388
-150 -11 -5 -81 -36 -156 -69 -229 -100 -558 -266 -734 -369 -44 -26 -87 -51
-97 -57 -316 -183 -747 -485 -1009 -709 -20 -17 -60 -51 -89 -76 -138 -115
-504 -468 -530 -510 -3 -5 -18 -15 -33 -23 -23 -12 -38 -12 -114 4 -213 45
-342 107 -661 318 -130 86 -258 169 -283 183 -288 168 -656 127 -954 -107 -80
-63 -175 -158 -175 -175 0 -6 -4 -10 -9 -10 -12 0 -94 -126 -137 -211 -37 -75
-79 -179 -88 -221 -3 -13 -13 -54 -22 -93 -30 -131 -25 -356 11 -530 68 -328
301 -674 606 -901 89 -67 222 -154 234 -154 3 0 22 -10 43 -23 49 -31 248
-117 269 -117 11 0 13 -3 7 -9 -5 -5 -38 -12 -74 -16 -59 -6 -84 -9 -160 -20
-14 -2 -47 -7 -75 -10 -106 -14 -265 -40 -335 -55 -25 -5 -61 -12 -80 -14 -19
-3 -71 -12 -115 -20 -44 -9 -94 -18 -112 -21 -117 -19 -163 -77 -169 -209 -4
-114 -15 -534 -18 -704 -3 -218 21 -278 137 -346 37 -21 64 -43 60 -49 -3 -5
-2 -7 4 -4 20 12 139 -116 126 -136 -3 -6 -1 -7 5 -3 7 4 19 -9 32 -34 l20
-40 -26 -62 c-14 -35 -29 -65 -33 -68 -3 -3 -7 -12 -9 -21 -1 -9 -35 -99 -75
-200 -71 -178 -177 -470 -230 -634 -90 -278 -219 -790 -253 -1003 -3 -19 -8
-44 -10 -56 -14 -74 -26 -150 -39 -246 -1 -8 -5 -37 -9 -65 -11 -79 -15 -107
-21 -171 -12 -128 -22 -258 -30 -389 -6 -95 -6 -482 0 -575 5 -89 14 -211 19
-260 2 -19 7 -69 10 -110 4 -41 10 -83 13 -93 2 -10 6 -36 8 -57 2 -31 14
-109 20 -130 1 -3 5 -27 10 -55 6 -41 55 -267 70 -325 2 -8 8 -33 13 -55 107
-436 348 -981 610 -1379 230 -350 547 -719 837 -976 33 -29 76 -67 95 -84 87
-78 245 -201 477 -370 24 -17 92 -62 152 -101 104 -66 126 -85 100 -85 -68 0
-713 -393 -1125 -686 -23 -16 -63 -44 -90 -63 -117 -82 -637 -482 -664 -511
-5 -5 -23 -20 -130 -110 -30 -25 -61 -52 -70 -60 -9 -8 -34 -30 -55 -49 -67
-57 -184 -162 -264 -236 -96 -89 -481 -474 -541 -541 -25 -28 -74 -84 -110
-124 -36 -40 -74 -83 -85 -94 -66 -69 -447 -541 -457 -567 -3 -8 0 -48 7 -89
7 -41 16 -97 20 -125 3 -27 10 -67 14 -87 9 -38 9 -38 -53 -83 -319 -237 -596
-459 -879 -705 -16 -14 -44 -38 -62 -55 -18 -16 -70 -64 -116 -105 -232 -209
-550 -528 -738 -740 -47 -52 -88 -97 -91 -100 -3 -3 -58 -68 -121 -145 -218
-265 -368 -473 -536 -744 -14 -22 -19 -23 -81 -17 -37 4 -78 8 -92 10 -14 3
-59 7 -100 10 -41 4 -93 8 -115 11 -40 5 -115 10 -300 21 -214 13 -586 7 -715
-11 -181 -26 -364 -84 -465 -147 -129 -82 -209 -161 -254 -253 -38 -77 -54
-157 -47 -238 5 -58 32 -154 54 -194 9 -14 -4 -26 -76 -73 -266 -173 -389
-405 -336 -632 36 -155 162 -285 376 -388 45 -22 88 -40 95 -40 17 0 16 -9 -5
-45 -112 -186 -78 -434 82 -599 134 -138 273 -199 506 -222 134 -14 386 -8
500 11 14 2 41 6 60 9 30 5 66 11 167 32 104 21 445 134 467 155 6 5 16 9 23
9 7 0 72 29 143 64 72 35 130 62 130 61 0 -1 -5 -27 -10 -56 -25 -129 -33
-327 -17 -436 45 -324 206 -571 467 -715 144 -79 349 -105 508 -64 160 42 275
119 398 268 28 33 95 149 124 213 57 128 128 396 169 640 31 186 52 417 52
585 1 97 -10 250 -17 262 -3 4 1 8 8 9 7 0 22 2 33 4 11 2 76 13 145 24 69 11
181 31 250 45 69 14 136 27 150 30 49 9 166 35 255 56 50 12 97 23 105 25 75
15 542 144 730 202 47 15 90 28 95 29 64 17 490 164 704 243 90 34 167 61 170
61 7 0 99 -86 227 -210 78 -76 82 -78 100 -62 11 10 96 77 189 151 94 73 179
140 190 149 11 10 40 33 65 52 25 19 50 39 57 45 6 5 56 45 110 87 101 80 366
290 393 311 42 34 90 69 90 65 0 -2 -14 -33 -31 -69 -17 -35 -69 -149 -116
-254 -46 -104 -94 -210 -105 -235 -11 -25 -52 -117 -90 -205 -38 -88 -75 -173
-83 -190 -46 -103 -405 -970 -405 -979 0 -2 -8 -21 -17 -42 -9 -22 -17 -41
-18 -44 -1 -3 -5 -14 -10 -25 -42 -100 -276 -712 -317 -825 -16 -47 -36 -98
-43 -115 -7 -16 -25 -66 -40 -110 -16 -44 -34 -93 -41 -110 -18 -44 -194 -540
-194 -547 0 -4 -5 -19 -12 -35 -6 -15 -12 -30 -13 -33 0 -3 -25 -77 -55 -165
-30 -88 -55 -162 -55 -165 -1 -3 -13 -41 -27 -85 -43 -131 -45 -123 45 -152
l78 -24 -5 -32 c-3 -18 -14 -70 -24 -117 -11 -47 -23 -101 -26 -121 -3 -20 -8
-42 -10 -50 -3 -8 -7 -30 -10 -49 -3 -19 -8 -45 -10 -56 -2 -12 -7 -39 -10
-60 -3 -22 -8 -50 -11 -64 -3 -14 -7 -41 -9 -60 -12 -101 -17 -137 -21 -155
-2 -11 -7 -54 -10 -95 -4 -41 -9 -86 -11 -100 -25 -150 -25 -876 0 -1030 2
-14 7 -56 10 -95 7 -76 6 -71 36 -260 18 -108 32 -181 65 -325 118 -515 332
-1015 632 -1474 72 -110 223 -320 242 -336 3 -3 18 -21 33 -42 15 -20 33 -42
40 -50 7 -7 40 -44 73 -83 106 -125 406 -417 555 -541 266 -220 584 -442 825
-574 65 -36 102 -60 95 -61 -3 0 -14 -2 -25 -4 -21 -4 -156 -23 -213 -31 -140
-18 -402 -23 -587 -11 -122 9 -118 8 -295 33 -19 3 -82 27 -140 54 -256 117
-450 162 -715 164 -439 4 -908 -204 -1228 -545 -81 -86 -187 -221 -187 -237 0
-6 -4 -12 -8 -14 -12 -4 -71 -108 -114 -198 -112 -237 -159 -484 -133 -703 20
-173 102 -388 199 -526 17 -24 41 -57 52 -75 37 -55 188 -201 265 -258 103
-75 161 -110 259 -156 122 -58 145 -67 240 -95 136 -40 171 -47 380 -76 65 -9
424 -7 490 3 19 3 60 8 90 11 288 32 608 123 1162 331 612 230 830 298 1098
340 19 3 45 7 57 9 80 13 204 18 373 15 362 -5 515 -4 582 3 540 63 900 289
1046 657 38 96 63 228 63 331 l0 56 47 -9 c48 -9 61 -11 142 -23 49 -8 72 -12
110 -20 14 -3 43 -7 65 -10 22 -2 51 -7 64 -10 21 -4 56 -9 219 -31 17 -2 49
-6 70 -9 20 -3 48 -7 62 -10 22 -3 73 -10 176 -20 18 -2 52 -6 77 -9 25 -3 78
-8 118 -12 40 -3 80 -7 89 -9 10 -2 59 -6 110 -10 51 -4 100 -8 110 -10 10 -2
62 -6 116 -10 55 -3 124 -8 154 -10 420 -29 744 -39 1290 -39 405 -1 801 7
960 18 30 2 111 7 180 11 69 3 141 8 160 10 19 1 80 6 135 10 55 3 114 8 130
10 17 2 64 7 105 10 86 7 150 13 200 20 19 3 62 7 95 11 33 3 71 7 85 9 23 4
55 8 148 20 20 3 60 7 87 11 61 7 65 8 225 34 30 5 73 12 95 15 23 3 52 8 65
10 14 3 66 12 115 20 50 9 97 18 106 21 14 4 17 -10 22 -98 26 -449 344 -775
872 -896 89 -20 124 -26 240 -40 61 -7 348 -7 580 0 390 12 722 -63 1380 -312
468 -177 642 -238 839 -290 64 -17 124 -33 134 -35 9 -1 51 -10 92 -18 99 -21
126 -26 180 -33 25 -3 56 -7 69 -9 160 -26 606 -26 684 0 7 2 29 7 51 10 84
12 247 58 353 101 465 185 791 563 869 1009 16 87 15 307 0 375 -23 104 -31
133 -48 190 -12 36 -24 70 -28 75 -4 6 -11 21 -15 35 -26 87 -171 332 -256
435 -45 53 -193 201 -249 248 -72 60 -227 160 -325 209 -354 178 -726 226
-1095 143 -136 -30 -212 -56 -340 -118 -58 -27 -110 -51 -117 -52 -18 -4 -93
-16 -138 -21 -22 -3 -51 -7 -65 -10 -124 -22 -586 -22 -745 1 -181 26 -255 39
-255 44 0 4 19 17 43 30 97 51 356 222 507 334 263 197 386 302 615 532 145
145 176 179 260 280 28 33 53 62 56 65 33 29 276 367 351 488 337 547 540
1067 674 1727 11 56 14 73 19 103 3 17 7 44 10 60 8 53 14 88 20 142 4 30 9
62 10 70 1 8 6 49 10 90 4 41 9 83 11 93 25 137 25 882 0 1142 -9 84 -19 182
-21 200 -11 88 -17 138 -25 190 -5 33 -12 81 -15 106 -7 49 -8 48 55 64 92 23
108 30 105 44 -8 45 -16 101 -20 140 -3 25 -9 79 -15 121 -6 41 -12 91 -15
110 -3 19 -7 45 -9 57 -3 11 -7 43 -11 70 -8 57 -13 91 -19 118 -2 11 -7 40
-10 65 -6 46 -13 86 -21 130 -3 14 -7 43 -11 65 -3 22 -7 47 -9 55 -2 8 -7 33
-10 55 -3 23 -8 52 -10 65 -3 14 -8 41 -11 60 -2 19 -9 58 -14 85 -5 28 -11
61 -14 75 -12 70 -19 114 -37 210 -10 58 -21 116 -24 130 -3 14 -9 50 -15 80
-6 30 -12 66 -15 80 -14 70 -75 394 -81 423 -2 16 -14 68 -25 115 -11 47 -22
102 -25 121 -3 20 -12 63 -19 96 -8 33 -16 71 -19 85 -2 14 -21 99 -41 190
-43 192 -44 196 -51 235 -3 17 -9 46 -15 65 -5 19 -25 105 -45 190 -19 85 -37
162 -39 170 -4 17 -34 138 -40 160 -2 8 -9 38 -15 65 -22 95 -19 83 -70 280
-184 718 -444 1567 -609 1995 -11 30 -21 59 -21 63 0 5 26 6 58 2 31 -3 98
-10 147 -15 403 -44 1058 -46 1380 -5 22 2 63 7 90 10 28 3 66 8 85 11 19 3
53 7 75 10 120 15 423 72 575 109 126 30 500 143 565 170 17 7 80 32 140 55
276 107 574 259 787 400 208 138 244 170 263 232 17 52 18 54 133 123 101 61
388 257 402 275 3 3 39 33 80 66 41 32 91 73 110 90 19 17 62 55 95 84 286
252 606 612 850 955 98 138 250 367 262 395 3 8 21 39 40 68 18 29 33 54 33
56 0 2 23 43 51 92 55 95 216 416 263 524 16 36 37 83 46 105 115 257 305 801
365 1045 62 251 107 440 118 495 l14 70 105 36 c259 87 496 232 725 443 345
316 663 650 936 981 118 143 110 133 173 220 174 242 256 464 249 677 -5 165
-56 289 -161 391 -41 40 -152 102 -199 112 -111 23 -212 25 -297 6 -21 -5 -38
-7 -38 -6 0 2 9 25 21 52 63 147 85 352 53 493 -43 189 -174 346 -344 416
-109 44 -266 60 -390 39 -91 -15 -286 -94 -310 -125 -3 -3 -12 -9 -20 -13 -8
-4 -25 -14 -37 -23 -21 -15 -23 -15 -29 2 -45 133 -136 241 -248 293 -63 30
-77 34 -171 50 -146 26 -394 -26 -535 -112 -175 -105 -321 -276 -435 -507 -25
-52 -52 -106 -60 -120 -29 -55 -115 -269 -135 -340 -13 -41 -26 -79 -30 -84
-5 -4 -15 6 -24 23 -34 65 -238 251 -275 251 -6 0 -11 5 -11 10 0 6 -8 10 -18
10 -10 0 -22 4 -27 9 -11 9 -97 39 -142 48 -15 3 -62 5 -104 5 -225 0 -425
-164 -493 -402 -41 -146 -49 -344 -21 -550 2 -19 7 -55 10 -80 28 -216 99
-559 145 -705 5 -16 22 -68 36 -115 36 -114 90 -253 125 -321 17 -33 -242
-307 -422 -444 -286 -219 -668 -389 -1009 -449 -61 -10 -98 -16 -141 -21 l-46
-5 -44 85 c-24 47 -49 85 -56 85 -6 0 -103 -22 -215 -49 -167 -41 -405 -93
-528 -117 -14 -2 -36 -7 -50 -9 -14 -3 -38 -7 -55 -10 -16 -3 -41 -8 -55 -10
-79 -16 -171 -32 -225 -40 -23 -3 -52 -8 -65 -10 -14 -3 -43 -8 -65 -11 -22
-2 -101 -13 -175 -24 -74 -10 -160 -22 -190 -25 -30 -4 -66 -8 -80 -10 -14 -2
-54 -6 -90 -10 -36 -3 -81 -8 -100 -10 -19 -2 -64 -7 -100 -10 -36 -3 -90 -8
-120 -10 -100 -9 -251 -19 -450 -30 -119 -7 -770 -15 -770 -10 0 2 37 34 83
71 45 37 84 70 87 73 3 3 30 28 60 55 153 137 392 384 507 523 17 21 40 49 52
63 28 33 28 34 94 120 31 41 61 80 65 85 26 33 179 264 226 342 114 191 236
432 311 618 15 39 34 84 41 100 7 17 38 104 69 195 47 139 65 200 100 330 10
37 55 228 59 255 3 17 8 41 11 55 3 14 7 36 10 50 3 14 7 35 9 46 2 12 7 39
10 60 3 22 8 50 11 64 2 14 7 48 10 75 3 28 7 61 10 75 3 14 7 57 11 95 3 39
7 86 9 105 22 238 23 771 0 980 -2 25 -9 92 -15 150 -19 185 -27 247 -35 284
-3 12 -7 41 -10 66 -2 25 -7 56 -10 70 -3 14 -12 68 -21 120 -19 114 -96 465
-125 570 -11 41 -24 91 -29 110 -52 226 -252 799 -407 1169 -4 9 -2 12 5 7 6
-3 14 -1 18 5 4 7 3 9 -2 6 -34 -21 -92 123 -62 155 7 7 14 20 16 28 2 8 8 17
13 18 5 2 7 7 4 12 -2 4 9 25 25 45 17 21 30 42 30 47 0 5 5 6 10 3 6 -3 10
-2 10 4 0 16 53 61 63 54 6 -3 7 -1 4 4 -4 6 1 17 10 24 14 12 16 12 9 -1 -4
-8 0 -6 9 5 9 11 21 19 26 17 5 -1 9 3 9 9 0 6 5 9 12 7 13 -5 29 8 88 65 69
66 69 69 55 732 -3 176 -11 337 -16 358 -21 82 -92 128 -217 141 -65 8 -121
15 -147 21 -11 2 -69 11 -130 20 -60 9 -123 18 -140 21 -51 8 -77 12 -160 24
-44 6 -91 13 -105 16 -14 2 -64 9 -112 15 -48 6 -85 15 -82 20 3 5 12 9 20 9
27 0 285 140 383 207 245 168 427 367 553 604 53 100 118 273 132 353 3 16 10
54 17 85 13 63 17 279 7 362 -32 256 -156 513 -336 696 -308 314 -731 396
-1062 205 -25 -14 -106 -67 -180 -116 -74 -50 -142 -95 -152 -101 -9 -5 -58
-37 -110 -69 -128 -82 -263 -149 -365 -181 -76 -24 -95 -27 -175 -22 l-90 6
-102 103 c-57 57 -147 144 -201 193 -54 50 -106 97 -115 105 -8 8 -45 40 -80
70 -36 30 -67 58 -70 61 -4 4 -176 141 -330 262 -8 7 -31 23 -50 37 -19 13
-37 27 -40 30 -20 23 -243 203 -410 331 -806 618 -1674 1064 -2539 1306 -202
56 -499 124 -646 147 -16 3 -68 12 -115 20 -47 8 -113 17 -148 21 -35 4 -71 8
-80 10 -9 1 -51 6 -92 9 -41 4 -93 9 -115 11 -130 13 -687 27 -698 19z"/>
<path d="M11349 30363 c-13 -16 -12 -17 4 -4 9 7 17 15 17 17 0 8 -8 3 -21
-13z"/>
<path d="M11359 30313 c-13 -16 -12 -17 4 -4 9 7 17 15 17 17 0 8 -8 3 -21
-13z"/>
<path d="M27559 30313 c-13 -16 -12 -17 4 -4 16 13 21 21 13 21 -2 0 -10 -8
-17 -17z"/>
<path d="M11344 30282 c4 -3 14 -7 22 -8 9 -1 13 0 10 4 -4 3 -14 7 -22 8 -9
1 -13 0 -10 -4z"/>
<path d="M27467 30259 c7 -7 15 -10 18 -7 3 3 -2 9 -12 12 -14 6 -15 5 -6 -5z"/>
<path d="M11355 30249 c-4 -6 -5 -12 -2 -15 2 -3 7 2 10 11 7 17 1 20 -8 4z"/>
<path d="M11349 30203 c-13 -16 -12 -17 4 -4 9 7 17 15 17 17 0 8 -8 3 -21
-13z"/>
<path d="M27580 30206 c0 -2 8 -10 18 -17 15 -13 16 -12 3 4 -13 16 -21 21
-21 13z"/>
</g>
</svg>
